<svg xmlns="http://www.w3.org/2000/svg" width="24px" height="24px" viewBox="0 0 24 24"><path fill-rule="evenodd" clip-rule="evenodd" d="M12 1C6.25264 1 1.5 5.4269 1.5 11C1.5 13.815 2.72111 16.3489 4.66667 18.1574V20C4.66667 21.6569 6.00981 23 7.66667 23H16.3333C17.9902 23 19.3333 21.6569 19.3333 20V18.1574C21.2789 16.3489 22.5 13.815 22.5 11C22.5 5.4269 17.7474 1 12 1ZM11 18V21H9V18H11ZM15 18H13V21H15V18ZM11 11.5C11 12.8807 9.88071 14 8.5 14C7.11929 14 6 12.8807 6 11.5C6 10.1193 7.11929 9 8.5 9C9.5 9 11 10.5 11 11.5ZM15.5 14C14.1193 14 13 12.8807 13 11.5C13 10.5 14.5 9 15.5 9C16.8807 9 18 10.1193 18 11.5C18 12.8807 16.8807 14 15.5 14Z" fill="#000000"></path></svg>
