<svg xmlns="http://www.w3.org/2000/svg" width="24px" height="24px" viewBox="0 0 24 24"><path fill-rule="evenodd" clip-rule="evenodd" d="M14.375 11.4722L13.7165 12.2248C10.7311 15.6367 7.01796 18.3351 2.85088 20.121L1.47477 20.7107L0.686928 18.8724L2.06305 18.2827C5.95503 16.6147 9.42303 14.0945 12.2114 10.9078L12.8699 10.1552L14.375 11.4722Z" fill="#000000" data-color="color-2"></path><path d="M14.8854 3.53934C16.3403 3.31329 17.5152 2.74566 18.3295 2.22975C19.1569 1.70556 19.8134 1.02522 20.4852 0.329201C20.5693 0.242072 20.6536 0.154697 20.7385 0.0673523C20.7691 0.175137 20.7998 0.282811 20.8304 0.39042C21.1325 1.45064 21.4327 2.50442 21.6205 3.59308C21.8168 4.73188 22.0109 6.3192 21.9996 8.11283C21.977 11.6755 21.1404 16.2084 17.712 19.5755C14.6444 22.5882 9.82183 22.7447 6.24804 20.3173C11.3585 17.2825 14.2652 13.0677 14.375 11.4723L13.7165 12.2248C11.2188 15.0793 8.2118 17.4343 4.85576 19.1734C1.25136 15.6186 0.985025 9.9547 4.47621 6.52598C6.04579 4.98448 7.79503 4.39137 9.57326 4.10313C10.4716 3.95751 11.3782 3.88495 12.2849 3.8124C13.1541 3.74284 14.0233 3.67328 14.8854 3.53934Z" fill="#000000"></path></svg>
