<svg xmlns="http://www.w3.org/2000/svg" width="24px" height="24px" viewBox="0 0 24 24"><path d="M5.43457 8.53125C6.90686 10.6925 8.65886 12.6522 10.5215 14.4824C13.0502 16.932 15.6012 18.8195 17.708 19.9238L17.9424 20.042C16.2809 21.2717 14.2258 22 12 22C6.47715 22 2 17.5228 2 12C2 9.77415 2.72722 7.71815 3.95703 6.05664C4.3897 6.91508 4.89371 7.7372 5.43457 8.53125Z" fill="#000000"></path><path d="M12 2C17.5228 2 22 6.47715 22 12C22 14.521 21.0648 16.8222 19.5254 18.5811C19.2269 18.4426 18.9283 18.3051 18.6367 18.1523C16.6127 17.0915 14.0197 15.1613 11.4297 12.5713C8.83979 9.98138 6.9106 7.38831 5.84961 5.36426C5.69602 5.07122 5.55506 4.77287 5.42285 4.46973C7.18114 2.93273 9.48117 2 12 2ZM16.25 10C15.5596 10 15 10.5596 15 11.25C15 11.9404 15.5596 12.5 16.25 12.5C16.9404 12.5 17.5 11.9404 17.5 11.25C17.5 10.5596 16.9404 10 16.25 10ZM13 5C11.8954 5 11 5.89543 11 7C11 8.10457 11.8954 9 13 9C14.1046 9 15 8.10457 15 7C15 5.89543 14.1046 5 13 5Z" fill="#000000"></path><path d="M1.7677 0.946166C2.38319 0.330765 3.21929 0.14879 4.02989 0.181055C4.84054 0.213344 5.74471 0.460343 6.68085 0.844658L7.60547 1.22376L6.84589 3.07439L5.92057 2.6946C5.1015 2.35837 4.44002 2.19967 3.95048 2.18015C3.46117 2.16066 3.26195 2.28042 3.18191 2.36038C3.08356 2.45874 2.92472 2.74813 3.0369 3.49286C3.14545 4.21335 3.48562 5.16365 4.07754 6.29297C5.25561 8.54054 7.32287 11.2923 10.0154 13.9848C12.7081 16.6775 15.4604 18.7454 17.708 19.9234C18.837 20.5151 19.787 20.8548 20.5074 20.9634C21.2521 21.0756 21.5415 20.9167 21.6399 20.8184C21.7198 20.7383 21.8402 20.5394 21.8208 20.0505C21.8037 19.622 21.6791 19.0616 21.4231 18.3794L21.3057 18.0797L20.9259 17.1544L22.7765 16.3948L23.1563 17.3201L23.293 17.6695C23.5981 18.4807 23.791 19.2611 23.8192 19.9704C23.8515 20.781 23.6695 21.617 23.0541 22.2326C22.2958 22.9908 21.2129 23.0928 20.2098 22.9417C19.1825 22.787 18.0093 22.3394 16.7792 21.6946C14.3079 20.3993 11.3961 18.194 8.60122 15.399C5.80634 12.6041 3.60094 9.69237 2.30563 7.22105C1.66105 5.99121 1.21402 4.81835 1.05921 3.79117C0.908096 2.788 1.0094 1.70447 1.7677 0.946166Z" fill="#000000" data-color="color-2"></path></svg>
