<svg xmlns="http://www.w3.org/2000/svg" width="24px" height="24px" viewBox="0 0 24 24"><path fill-rule="evenodd" clip-rule="evenodd" d="M9.11917 10.9202C10.0112 10.375 11.005 10 12 10C12.995 10 13.9888 10.375 14.8808 10.9202C15.7816 11.4706 16.6406 12.2316 17.3843 13.0992C18.8487 14.8078 20 17.0932 20 19.25C20 20.274 19.5554 21.2365 18.797 21.9317C18.0416 22.6242 17.0341 23 16 23C14.7922 23 14.1396 22.7057 13.5833 22.4507L13.5663 22.4429C13.1306 22.2432 12.782 22.0833 12 22.0833C11.218 22.0833 10.8694 22.2432 10.4337 22.4429L10.4167 22.4507C9.86038 22.7057 9.20782 23 8 23C6.96586 23 5.95844 22.6242 5.20296 21.9317C4.44456 21.2365 4 20.274 4 19.25C4 17.0932 5.15125 14.8078 6.61574 13.0992C7.35943 12.2316 8.21844 11.4706 9.11917 10.9202Z" fill="#000000" data-color="color-2"></path><path fill-rule="evenodd" clip-rule="evenodd" d="M18.5 11C18.5 9.53152 19.4554 8 21 8C22.5446 8 23.5 9.53152 23.5 11C23.5 12.4685 22.5446 14 21 14C19.4554 14 18.5 12.4685 18.5 11Z" fill="#000000"></path><path fill-rule="evenodd" clip-rule="evenodd" d="M0.5 11C0.5 9.53152 1.45537 8 3 8C4.54463 8 5.5 9.53152 5.5 11C5.5 12.4685 4.54463 14 3 14C1.45537 14 0.5 12.4685 0.5 11Z" fill="#000000"></path><path fill-rule="evenodd" clip-rule="evenodd" d="M13 5C13 3.22316 14.2035 1.5 16 1.5C17.7965 1.5 19 3.22316 19 5C19 6.77684 17.7965 8.5 16 8.5C14.2035 8.5 13 6.77684 13 5Z" fill="#000000"></path><path fill-rule="evenodd" clip-rule="evenodd" d="M5 5C5 3.22316 6.20346 1.5 8 1.5C9.79654 1.5 11 3.22316 11 5C11 6.77684 9.79654 8.5 8 8.5C6.20346 8.5 5 6.77684 5 5Z" fill="#000000"></path></svg>
