<svg xmlns="http://www.w3.org/2000/svg" width="24px" height="24px" viewBox="0 0 24 24"><path fill-rule="evenodd" clip-rule="evenodd" d="M10 22H14V24H10V22Z" fill="#000000" data-color="color-2"></path><path fill-rule="evenodd" clip-rule="evenodd" d="M3 9C3 4.02944 7.02944 0 12 0C16.9706 0 21 4.02944 21 9C21 13.9706 16.9706 18 12 18C7.02944 18 3 13.9706 3 9ZM8 8C8 6.34315 9.34315 5 11 5H12V3H11C8.23858 3 6 5.23858 6 8V9H8V8Z" fill="#000000"></path><path d="M7.50331 22.0821L7.24294 18.921C8.68261 19.6126 10.2961 20 12 20C13.7039 20 15.3173 19.6126 16.7569 18.9211L16.421 23H7.57899L7.50433 22.0937C7.50397 22.0898 7.50363 22.0859 7.50331 22.0821Z" fill="#000000" data-color="color-2"></path></svg>
