<svg xmlns="http://www.w3.org/2000/svg" width="24px" height="24px" viewBox="0 0 24 24"><polygon points="11.083 9.669 8 6.586 8 3.465 3.873 .713 .713 3.873 3.465 8 6.586 8 9.669 11.083 11.083 9.669" fill="#000000" stroke-width="0" data-color="color-2"></polygon><path d="m19.636,15.393c-.971.387-2.028.607-3.136.607-.59,0-1.166-.061-1.722-.176l-1.492,1.704,4.593,4.593c.585.585,1.353.877,2.121.877.769,0,1.536-.292,2.121-.877.566-.566.879-1.32.879-2.121s-.313-1.555-.879-2.121l-2.486-2.486Z" fill="#000000" stroke-width="0" data-color="color-2"></path><path d="m22.952,4.392l-.074-.168-2.995,2.996c-.391.391-1.024.391-1.414,0l-1.783-1.783c-.391-.391-.391-1.024,0-1.414l2.958-2.958-.035-.015c-.876-.385-1.807-.569-2.763-.547-2.81.065-5.329,2.019-6.096,4.723-.411,1.448-.289,2.826.166,4.043l-8.816,7.932c-.685.617-1.075,1.464-1.1,2.386-.023.921.322,1.788.974,2.439.623.623,1.476.975,2.354.975.189,0,.378-.013.707-.11.803-.236,1.518-.711,2.069-1.34l7.466-8.525c1.219.493,2.614.637,4.072.267,2.516-.639,4.445-2.808,4.795-5.38.166-1.219,0-2.411-.486-3.52Z" stroke-width="0" fill="#000000"></path></svg>
