<svg xmlns="http://www.w3.org/2000/svg" width="24px" height="24px" viewBox="0 0 24 24"><path d="M21 16.5V1.69073L8 5.23619V19.5H10V9.76375L19 7.30921V16.5H21Z" fill="#000000"></path><path fill-rule="evenodd" clip-rule="evenodd" d="M2 19.5C2 17.404 3.96932 16 6 16C8.03068 16 10 17.404 10 19.5C10 21.596 8.03068 23 6 23C3.96932 23 2 21.596 2 19.5Z" fill="#000000"></path><path fill-rule="evenodd" clip-rule="evenodd" d="M13 16.5C13 14.404 14.9693 13 17 13C19.0307 13 21 14.404 21 16.5C21 18.596 19.0307 20 17 20C14.9693 20 13 18.596 13 16.5Z" fill="#000000"></path></svg>
