<svg xmlns="http://www.w3.org/2000/svg" width="24px" height="24px" viewBox="0 0 24 24"><path d="M3.36124 4.77545L4.77545 3.36124L12.7069 11.2927L11.2927 12.7069L3.36124 4.77545Z" fill="#000000"></path><path d="M4.40381 10.0606L1.22183 6.87866L2.63604 5.46445L5.81802 8.64643C6.40381 9.23222 7.35355 9.23222 7.93934 8.64643L8.64645 7.93932C9.23223 7.35354 9.23223 6.40379 8.64645 5.818L5.46447 2.63602L6.87868 1.22181L10.0607 4.40379C11.4275 5.77062 11.4275 7.9867 10.0607 9.35354L9.35355 10.0606C7.98672 11.4275 5.77064 11.4275 4.40381 10.0606Z" fill="#000000"></path><path d="M10.9497 14.4645L13.7782 17.2929L21.5563 9.51471C23.1184 7.95261 23.1184 5.41995 21.5563 3.85785L20.1421 2.44364L2.58598 19.9998L4.0002 21.414L10.9497 14.4645Z" fill="#000000" data-color="color-2"></path><path d="M16.2355 17.6497L17.6497 16.2355L21.4145 20.0003L20.0003 21.4145L16.2355 17.6497Z" fill="#000000"></path></svg>
