<svg xmlns="http://www.w3.org/2000/svg" width="24px" height="24px" viewBox="0 0 24 24"><path d="m10.744,3.362c-.765-.866-1.866-1.362-3.021-1.362s-2.258.497-3.022,1.363c-.765.867-1.121,2.021-.978,3.168l.132,1.054c.242,1.947,1.905,3.415,3.868,3.415s3.624-1.468,3.868-3.415l.132-1.054c.143-1.147-.214-2.302-.979-3.169Z" stroke-width="0" fill="#000000"></path><path d="m20.246,2.219c-.673-.775-1.646-1.219-2.672-1.219s-1.998.444-2.67,1.219c-.672.775-.975,1.801-.83,2.817l.151,1.06c.237,1.656,1.677,2.904,3.349,2.904s3.113-1.249,3.349-2.904l.151-1.06c.146-1.015-.157-2.042-.828-2.816Z" fill="#000000" stroke-width="0" data-color="color-2"></path><path d="m23.99,17.105l-.358-3.581c-.077-.771-.592-1.434-1.312-1.688-3.021-1.066-6.085-1.097-9.111-.117,1.913.505,3.357,2.083,3.68,4.023l.488,2.935c.075.446.068.884.027,1.313.057,0,.115.007.172.007,1.684,0,3.368-.262,5.04-.786h0c.889-.28,1.467-1.165,1.374-2.106Z" fill="#000000" stroke-width="0" data-color="color-2"></path><path d="m15.403,19.005l-.488-2.935c-.194-1.167-1.066-2.117-2.221-2.42-3.3-.864-6.643-.865-9.944,0-1.154.303-2.025,1.253-2.22,2.42l-.489,2.934c-.266,1.596.76,3.104,2.335,3.434,1.774.373,3.561.559,5.347.559s3.572-.186,5.346-.558c1.575-.33,2.602-1.839,2.335-3.434Z" stroke-width="0" fill="#000000"></path></svg>
